<?xml version="1.0" encoding="UTF-8" standalone="no"?><!DOCTYPE svg PUBLIC "-//W3C//DTD SVG 1.1//EN" "http://www.w3.org/Graphics/SVG/1.1/DTD/svg11.dtd"><svg width="100%" height="100%" viewBox="0 0 2090 420" version="1.1" xmlns="http://www.w3.org/2000/svg" xmlns:xlink="http://www.w3.org/1999/xlink" xml:space="preserve" xmlns:serif="http://www.serif.com/" style="fill-rule:evenodd;clip-rule:evenodd;stroke-linejoin:round;stroke-miterlimit:2;"><g><path d="M0,419.809c0,0 80.603,-191.433 120.905,-416.45l110.829,-3.358c0,0 87.32,409.733 120.905,403.016l-70.528,-3.358l-87.32,-235.929l-47.019,0l-77.245,198.986l-70.528,57.094Z" style="fill:#655113;"/><path d="M36.943,419.809c0,0 80.603,-191.433 120.905,-416.45l110.829,-3.358c0,0 87.32,409.733 120.905,403.016l-70.528,-3.358l-87.32,-235.929l-47.019,0l-77.245,198.986l-70.528,57.094Z" style="fill:#d4af37;"/></g><g><path d="M1700.194,419.809c0,0 80.603,-191.433 120.905,-416.45l110.829,-3.358c0,0 87.32,409.733 120.905,403.016l-70.528,-3.358l-87.32,-235.929l-47.019,0l-77.245,198.986l-70.528,57.094Z" style="fill:#655113;"/><path d="M1737.137,419.809c0,0 80.603,-191.433 120.905,-416.45l110.829,-3.358c0,0 87.32,409.733 120.905,403.016l-70.528,-3.358l-87.32,-235.929l-47.019,0l-77.245,198.986l-70.528,57.094Z" style="fill:#d4af37;"/></g><path d="M1998.394,182.75c-6.656,-29.072 -27.895,-143.484 -36.413,-172.057c-0.537,-1.8 -9.514,-1.688 -9.095,0.143c6.656,29.072 37.503,145.073 46.021,173.647c0.595,1.997 -0.047,0.299 -0.512,-1.732Z" style="fill:#e0d9c4;"/><g><g><path d="M355.625,31.069l214.942,-31.069l-26.868,63.811l-144.414,20.151l-0,94.037l107.471,-20.151l-20.151,53.736l-83.962,32.748l12.09,102.934l132.324,-18.136l-20.151,60.452l-141.056,23.509c0,0 -30.226,-45.333 -30.226,-172.118c0,0 -6.717,-88.157 0,-209.904Z" style="fill:#655113;"/><path d="M392.568,31.069l214.942,-31.069l-26.868,63.811l-144.414,20.151l-0,94.037l107.471,-20.151l-20.151,53.736l-83.962,32.748l12.09,102.934l132.324,-18.136l-20.151,60.452l-141.056,23.509c0,0 -30.226,-45.333 -30.226,-172.118c0,0 -6.717,-88.157 0,-209.904Z" style="fill:#d4af37;"/></g><path d="M411.792,43.626c29.465,-4.617 145.077,-17.843 174.174,-24.351c1.833,-0.41 2.346,-9.374 0.49,-9.083c-29.465,4.617 -147.331,27.316 -176.428,33.825c-2.034,0.455 -0.295,-0.068 1.764,-0.391Z" style="fill:#e0d9c4;"/><path d="M435.009,362.656c21.48,-2.974 105.068,-9.516 126.554,-14.499c1.354,-0.314 2.983,-9.684 1.63,-9.497c-21.48,2.974 -108,19.311 -129.487,24.293c-1.502,0.348 -0.199,-0.09 1.302,-0.298Z" style="fill:#e0d9c4;"/><path d="M412.066,193.031c18.448,-2.9 90.233,-9.685 108.689,-14.379c1.163,-0.296 2.571,-8.69 1.409,-8.507c-18.448,2.9 -92.76,18.473 -111.216,23.167c-1.29,0.328 -0.171,-0.078 1.118,-0.281Z" style="fill:#e0d9c4;"/></g><g><g><path d="M948.863,31.069l214.942,-31.069l-26.868,63.811l-144.414,20.151l-0,94.037l107.471,-20.151l-20.151,53.736l-83.962,32.748l12.09,102.934l132.324,-18.136l-20.151,60.452l-141.056,23.509c0,0 -30.226,-45.333 -30.226,-172.118c0,0 -6.717,-88.157 0,-209.904Z" style="fill:#655113;"/><path d="M985.806,31.069l214.942,-31.069l-26.868,63.811l-144.414,20.151l-0,94.037l107.471,-20.151l-20.151,53.736l-83.962,32.748l12.09,102.934l132.324,-18.136l-20.151,60.452l-141.056,23.509c0,0 -30.226,-45.333 -30.226,-172.118c0,0 -6.717,-88.157 0,-209.904Z" style="fill:#d4af37;"/></g><path d="M1005.031,43.626c29.465,-4.617 145.077,-17.843 174.174,-24.351c1.833,-0.41 2.346,-9.374 0.49,-9.083c-29.465,4.617 -147.331,27.316 -176.428,33.825c-2.034,0.455 -0.295,-0.068 1.764,-0.391Z" style="fill:#e0d9c4;"/><path d="M1028.247,362.656c21.48,-2.974 105.068,-9.516 126.554,-14.499c1.354,-0.314 2.983,-9.684 1.63,-9.497c-21.48,2.974 -108,19.311 -129.487,24.293c-1.502,0.348 -0.199,-0.09 1.302,-0.298Z" style="fill:#e0d9c4;"/><path d="M1005.305,193.031c18.448,-2.9 90.233,-9.685 108.689,-14.379c1.163,-0.296 2.571,-8.69 1.409,-8.507c-18.448,2.9 -92.76,18.473 -111.216,23.167c-1.29,0.328 -0.171,-0.078 1.118,-0.281Z" style="fill:#e0d9c4;"/></g><g><path d="M570.567,103.27l258.975,-103.27l63.811,42.817l-147.773,47.019c0,0 94.037,260.288 73.886,323.256l-63.811,6.717c0,0 -3.358,-202.351 -77.245,-296.388l-107.844,47.019l0,-67.169Z" style="fill:#655113;"/><path d="M607.51,103.27l258.975,-103.27l63.811,42.817l-147.773,47.019c0,0 94.037,260.288 73.886,323.256l-63.811,6.717c0,0 -3.358,-202.351 -77.245,-296.388l-107.844,47.019l0,-67.169Z" style="fill:#d4af37;"/></g><g><g><path d="M1222.483,419.809c0,0 43.66,-234.25 -10.075,-419.809l90.943,33.585l0,46.176c0,0 20.93,-69.689 123.999,-79.76l-10.075,62.968c0,0 -30.226,3.358 -67.169,36.943l-46.755,50.377l0,269.52l-80.867,0Z" style="fill:#655113;"/><path d="M1259.426,419.809c0,0 43.66,-234.25 -10.075,-419.809l90.943,33.585l0,46.176c0,0 20.93,-69.689 123.999,-79.76l-10.075,62.968c0,0 -30.226,3.358 -67.169,36.943l-46.755,50.377l0,269.52l-80.867,0Z" style="fill:#d4af37;"/></g><path d="M1352.783,71.945c17.982,-5.038 72.905,-44.026 89.523,-53.325c22.439,-12.557 6.177,-9.411 5.015,-9.228c-18.448,2.9 -74.217,57.63 -94.539,61.497c-2.499,0.476 -2.01,1.62 0,1.056Z" style="fill:#e0d9c4;"/></g><g><g><path d="M1427.35,413.092l0,-302.591l67.443,8.06l62.084,178.663l72.589,-2.778l37.281,-294.446l59.109,0l-42.988,419.809l-61.796,0l9.274,-77.228l-90.379,0.228l-68.475,-136.263l7.18,213.263l-51.322,-6.717Z" style="fill:#655113;"/><path d="M1464.293,413.092l0,-302.591l67.443,8.06l62.084,178.663l72.589,-2.778l37.281,-294.446l59.109,0l-42.988,419.809l-61.796,0l9.274,-77.228l-90.379,0.228l-68.475,-136.263l7.18,213.263l-51.322,-6.717Z" style="fill:#d4af37;"/></g><path d="M1734.796,19.751c-0.312,-6.639 15.276,-4.877 15.052,0.135c-1.729,38.735 -25.425,232.276 -25.425,232.276c0,0 12.204,-193.51 10.373,-232.411Z" style="fill:#e0d9c4;"/><path d="M1531.36,135.017c-1.135,-4.563 -12.469,0.305 -11.267,3.642c9.289,25.787 67.001,151.082 67.001,151.082c0,0 -49.083,-127.985 -55.735,-154.724Z" style="fill:#e0d9c4;"/></g><path d="M203.164,53.604c-0.054,-2.947 4.238,-3.429 5.006,-1.627c3.167,7.431 15.02,29.948 15.19,37.621c0.155,6.979 -10.902,10.531 -14.329,4.462c-3.672,-6.504 -5.727,-32.806 -5.867,-40.455Z" style="fill:#e0d9c4;"/><path d="M297.8,182.75c-6.656,-29.072 -27.895,-143.484 -36.413,-172.057c-0.537,-1.8 -9.514,-1.688 -9.095,0.143c6.656,29.072 37.503,145.073 46.021,173.647c0.595,1.997 -0.047,0.299 -0.512,-1.732Z" style="fill:#e0d9c4;"/><path d="M705.133,84.772c27.624,-11.245 137.13,-50.608 163.961,-63.611c1.69,-0.819 0.136,-9.662 -1.604,-8.954c-27.624,11.245 -137.153,60.347 -163.985,73.349c-1.876,0.909 -0.303,0.001 1.628,-0.784Z" style="fill:#e0d9c4;"/><path d="M1928.113,90.037c0.847,2.823 -3.156,4.444 -4.382,2.917c-5.054,-6.301 -22.539,-24.788 -24.772,-32.131c-2.031,-6.679 7.659,-13.081 12.595,-8.16c5.29,5.273 14.361,30.047 16.559,37.375Z" style="fill:#e0d9c4;"/></svg>